<?xml version="1.0" encoding="UTF-8" standalone="no"?>
<!DOCTYPE svg PUBLIC "-//W3C//DTD SVG 1.1//EN" "http://www.w3.org/Graphics/SVG/1.1/DTD/svg11.dtd">
<svg width="100%" height="100%" viewBox="0 0 1080 1080" version="1.1" xmlns="http://www.w3.org/2000/svg" xmlns:xlink="http://www.w3.org/1999/xlink" xml:space="preserve" xmlns:serif="http://www.serif.com/" style="fill-rule:evenodd;clip-rule:evenodd;stroke-linejoin:round;stroke-miterlimit:2;">
    <rect width="1080" height="1080" fill="white"/>
    <g id="path939" transform="matrix(4.04978,3.96739,-3.96739,4.04978,473.666,-183.085)">
        <path d="M83.946,159.434C83.946,159.352 83.704,159.14 83.409,158.963C82.936,158.68 81.499,156.572 79.742,153.585C78.876,152.114 78.701,151.972 77.745,151.972L76.854,151.972L74.339,154.687C72.699,156.457 71.605,157.5 71.195,157.685C69.849,158.292 68.565,157.495 67.93,155.659C67.291,153.813 67.066,153.211 66.916,152.945C66.832,152.798 66.683,152.378 66.584,152.011C66.061,150.069 65.374,149.249 64.27,149.25C63.775,149.251 63.221,149.585 60.881,151.293C57.247,153.945 56.892,154.093 55.672,153.47C54.913,153.083 54.417,152.07 54.251,150.566C54.143,149.585 53.601,146.285 53.373,145.216C53.281,144.788 53.086,144.569 52.496,144.237L51.737,143.809L51.007,144.149C50.605,144.337 49.755,144.729 49.118,145.022C48.482,145.314 47.588,145.726 47.133,145.936C44.468,147.17 44.154,147.243 43.3,146.83C42.12,146.258 41.918,145.744 41.938,143.349C41.947,142.222 42.003,140.564 42.062,139.663C42.186,137.768 42.062,137.331 41.209,136.681C40.638,136.245 40.613,136.242 39.827,136.481C39.386,136.616 38.132,136.925 37.04,137.168C35.948,137.412 34.671,137.716 34.202,137.843C33.733,137.97 33.174,138.074 32.958,138.074C32.346,138.074 31.427,137.346 31.087,136.591C30.792,135.936 30.79,135.852 31.051,134.797C31.202,134.188 31.516,132.833 31.749,131.787C31.983,130.74 32.274,129.536 32.396,129.11C32.595,128.416 32.587,128.287 32.32,127.848C31.687,126.807 31.646,126.799 27.438,126.924L23.626,127.037L22.955,126.613C22.345,126.228 21.736,125.341 21.736,124.836C21.736,124.726 22.078,123.851 22.496,122.89C23.174,121.334 23.524,120.563 24.754,117.917L25.087,117.202L24.664,116.432C24.414,115.979 24.083,115.619 23.857,115.555C23.339,115.41 19.807,114.806 18.217,114.591C16.588,114.371 15.777,113.966 15.405,113.184C15.053,112.446 15.042,111.898 15.366,111.271C15.614,110.792 17.878,107.576 18.997,106.114C19.322,105.689 19.628,105.13 19.676,104.873C19.772,104.36 19.335,103.356 18.923,103.142C18.531,102.939 17.613,102.561 16.359,102.087C15.722,101.846 14.866,101.515 14.456,101.352C14.047,101.188 13.488,101.002 13.215,100.938C12.012,100.655 10.984,99.6 10.982,98.648C10.981,97.778 11.62,96.956 13.966,94.808C16.894,92.128 16.938,92.073 16.938,91.064C16.938,90.316 16.893,90.228 16.288,89.804C15.93,89.553 15.257,89.125 14.793,88.852C14.329,88.579 13.524,88.089 13.003,87.764C12.483,87.439 11.668,86.93 11.193,86.633C10.718,86.336 10.172,85.839 9.98,85.528C9.788,85.218 9.563,84.964 9.479,84.964C9.395,84.964 9.327,84.703 9.327,84.384C9.327,84.066 9.397,83.805 9.483,83.805C9.569,83.805 9.77,83.584 9.93,83.314C10.218,82.825 10.839,82.363 13.05,80.991C13.687,80.596 14.822,79.876 15.573,79.391L16.938,78.509L16.938,76.713L14.232,74.206C11.587,71.756 10.982,70.999 10.982,70.142C10.982,69.167 11.856,68.25 13.186,67.829C13.566,67.709 14.473,67.378 15.201,67.093C15.929,66.808 16.747,66.506 17.018,66.422C17.498,66.273 18.419,65.888 18.923,65.627C19.32,65.421 19.772,64.409 19.682,63.926C19.637,63.685 18.71,62.262 17.623,60.764C14.904,57.018 14.818,56.816 15.404,55.585C15.762,54.835 16.525,54.43 18.03,54.193C24.522,53.169 24.151,53.273 24.663,52.341L25.087,51.567L24.754,50.851C23.524,48.206 23.174,47.435 22.496,45.879C22.078,44.918 21.736,44.043 21.736,43.933C21.736,43.428 22.345,42.541 22.954,42.156L23.626,41.732L27.446,41.847C31.186,41.96 31.276,41.955 31.716,41.609C32.37,41.094 32.71,40.37 32.49,39.959C32.393,39.779 32.237,39.202 32.144,38.679C32.05,38.155 31.87,37.354 31.744,36.899C31.617,36.444 31.348,35.35 31.146,34.467C30.783,32.883 30.782,32.853 31.088,32.176C31.427,31.423 32.347,30.695 32.958,30.695C33.174,30.695 33.733,30.799 34.202,30.926C34.671,31.053 35.948,31.357 37.04,31.6C38.132,31.844 39.386,32.153 39.827,32.287C40.613,32.527 40.638,32.524 41.209,32.088C42.062,31.438 42.187,31.001 42.062,29.106C42.003,28.205 41.948,26.538 41.939,25.4C41.922,23.14 42.019,22.831 42.986,22.07C43.57,21.611 44.292,21.59 45.254,22.005C46.104,22.372 49.34,23.843 51.007,24.62L51.737,24.96L52.496,24.532C53.086,24.199 53.281,23.981 53.373,23.553C53.601,22.484 54.143,19.184 54.251,18.203C54.417,16.699 54.913,15.686 55.672,15.299C56.992,14.625 57.184,14.717 62.218,18.411C63.855,19.613 64.165,19.722 64.972,19.385C65.465,19.179 65.654,18.944 66.071,18.026C66.347,17.416 66.576,16.834 66.579,16.733C66.582,16.631 66.729,16.251 66.905,15.887C67.081,15.523 67.227,15.113 67.231,14.977C67.235,14.84 67.341,14.531 67.467,14.29C67.593,14.048 67.787,13.564 67.899,13.214C68.362,11.768 69.283,10.842 70.262,10.841C70.938,10.84 71.861,11.369 72.61,12.188C72.973,12.585 74.077,13.784 75.063,14.853L76.857,16.797L77.753,16.797C78.609,16.797 78.671,16.767 79.106,16.146C79.357,15.789 79.785,15.116 80.058,14.651C81.522,12.159 83.092,9.913 83.502,9.727C83.746,9.615 83.946,9.448 83.946,9.355C83.946,9.262 84.207,9.186 84.526,9.186C84.844,9.186 85.105,9.262 85.105,9.355C85.105,9.448 85.305,9.615 85.549,9.727C85.957,9.913 87.493,12.107 88.993,14.646C89.266,15.109 89.7,15.782 89.958,16.142C90.405,16.764 90.471,16.797 91.311,16.797L92.194,16.797L93.988,14.853C94.974,13.784 96.078,12.585 96.441,12.188C98.346,10.107 100.293,10.531 101.152,13.214C101.264,13.564 101.458,14.048 101.584,14.29C101.71,14.531 101.816,14.84 101.82,14.977C101.824,15.113 101.97,15.523 102.146,15.887C102.322,16.251 102.468,16.631 102.472,16.733C102.475,16.834 102.704,17.416 102.98,18.026C103.397,18.944 103.586,19.179 104.079,19.385C104.886,19.722 105.195,19.613 106.836,18.411C111.875,14.718 112.065,14.628 113.379,15.299C114.139,15.686 114.634,16.701 114.799,18.203C114.898,19.117 115.417,22.251 115.683,23.551C115.773,23.985 115.958,24.189 116.569,24.523L117.343,24.946L118.058,24.613C119.743,23.828 122.957,22.368 123.797,22.005C125.109,21.439 126.032,21.706 126.849,22.889C127.134,23.301 127.148,23.609 127.048,27.277L126.941,31.221L127.636,31.882C128.167,32.387 128.413,32.516 128.682,32.431C128.874,32.37 129.777,32.142 130.687,31.925C131.597,31.708 133.012,31.371 133.831,31.175C136.197,30.611 136.328,30.606 137.028,31.07C137.394,31.312 137.778,31.766 137.961,32.172C138.269,32.855 138.269,32.88 137.905,34.467C137.703,35.35 137.434,36.444 137.308,36.899C137.181,37.354 137.001,38.155 136.907,38.679C136.814,39.202 136.658,39.779 136.561,39.959C136.341,40.37 136.681,41.094 137.335,41.609C137.775,41.955 137.865,41.96 141.605,41.847L145.426,41.732L146.105,42.161C146.591,42.468 146.865,42.8 147.066,43.326L147.346,44.061L146.57,45.843C145.879,47.431 145.529,48.203 144.297,50.851L143.964,51.567L144.389,52.341C144.9,53.273 144.529,53.169 151.021,54.193C152.526,54.43 153.289,54.835 153.647,55.585C154.233,56.816 154.147,57.018 151.428,60.764C150.341,62.262 149.414,63.685 149.369,63.926C149.279,64.409 149.731,65.421 150.128,65.627C150.633,65.888 151.553,66.273 152.033,66.422C152.305,66.506 153.122,66.808 153.85,67.093C154.578,67.378 155.485,67.709 155.865,67.829C157.195,68.25 158.069,69.167 158.069,70.142C158.069,70.999 157.464,71.756 154.819,74.206L152.113,76.713L152.113,78.509L153.478,79.391C154.229,79.876 155.364,80.596 156.001,80.991C158.212,82.363 158.833,82.825 159.122,83.314C159.281,83.584 159.482,83.805 159.568,83.805C159.654,83.805 159.724,84.066 159.724,84.384C159.724,84.703 159.656,84.964 159.572,84.964C159.488,84.964 159.263,85.218 159.071,85.528C158.879,85.839 158.333,86.336 157.858,86.632C156.141,87.702 155.599,88.035 154.517,88.686C152.199,90.08 152.113,90.165 152.113,91.064C152.113,92.073 152.157,92.128 155.085,94.808C156.377,95.991 157.578,97.235 157.752,97.573C158.536,99.089 157.769,100.329 155.62,101.021C153.859,101.588 152.819,101.977 150.955,102.768C149.98,103.182 149.889,103.252 149.584,103.838C149.197,104.577 149.316,105.149 150.054,106.114C151.471,107.965 153.505,110.9 153.71,111.389C154.013,112.112 153.991,112.493 153.606,113.249C153.34,113.77 153.109,113.955 152.387,114.225C151.897,114.408 151.021,114.605 150.44,114.662C149.423,114.761 146.241,115.303 145.278,115.541C144.951,115.621 144.687,115.885 144.388,116.428L143.964,117.202L144.297,117.917C145.529,120.566 145.879,121.338 146.57,122.926L147.346,124.708L147.066,125.443C146.865,125.969 146.591,126.301 146.105,126.608L145.426,127.037L141.613,126.924C137.407,126.799 137.364,126.807 136.733,127.845C136.47,128.276 136.461,128.419 136.648,129.108C136.765,129.535 137.055,130.74 137.293,131.787C137.531,132.833 137.849,134.188 138,134.797C138.261,135.854 138.26,135.936 137.962,136.596C137.556,137.497 136.612,138.142 135.862,138.031C135.144,137.925 129.434,136.579 128.681,136.339C128.413,136.253 128.168,136.382 127.635,136.888L126.939,137.55L127.058,141.436C127.175,145.244 127.17,145.333 126.816,145.905C126.61,146.239 126.154,146.635 125.751,146.83C124.881,147.251 124.601,147.182 121.67,145.82C121.078,145.545 120.185,145.133 119.684,144.905C119.184,144.677 118.446,144.337 118.044,144.149L117.314,143.809L116.555,144.237C115.962,144.572 115.772,144.785 115.683,145.216C115.415,146.531 114.898,149.654 114.799,150.566C114.634,152.068 114.139,153.083 113.379,153.47C112.164,154.09 111.835,153.954 108.226,151.331C106.701,150.223 105.25,149.278 105,149.231C104.502,149.138 103.495,149.581 103.281,149.987C102.978,150.562 102.477,151.803 102.477,151.979C102.477,152.084 102.369,152.405 102.236,152.692C101.982,153.242 101.666,154.083 101.121,155.659C100.488,157.487 99.201,158.292 97.869,157.691C97.477,157.514 96.339,156.429 94.727,154.693L92.201,151.972L91.311,151.972C90.469,151.972 90.397,152.006 89.989,152.593C89.501,153.294 88.42,154.995 87.085,157.165C86.529,158.069 85.973,158.761 85.642,158.96C85.347,159.139 85.105,159.352 85.105,159.434C85.105,159.516 84.844,159.583 84.526,159.583C84.207,159.583 83.946,159.516 83.946,159.434L83.946,159.434ZM89.687,138.323C92.527,138.07 95.074,137.656 97.431,137.063C99.292,136.596 101.671,135.923 102.063,135.753C102.245,135.674 102.916,135.414 103.553,135.175C106.678,134.002 107.275,133.648 107.275,132.966C107.275,132.733 107.416,131.944 107.587,131.213C107.758,130.482 108.052,129.177 108.24,128.312C108.921,125.172 109.277,123.585 109.428,123.018C109.63,122.259 110.463,121.268 111.393,120.678C112.026,120.277 112.309,120.205 113.27,120.205C113.892,120.205 115.013,120.348 115.761,120.523C118.57,121.181 120.118,121.522 120.76,121.626C121.124,121.684 121.971,121.88 122.642,122.06L123.863,122.388L125.514,120.676C130.705,115.295 135.128,108.235 137.525,101.509C138.366,99.148 138.75,97.763 139.381,94.81C140.208,90.937 140.366,89.213 140.366,84.048L140.366,79.344L139.58,78.926C139.148,78.696 138.682,78.439 138.546,78.354C138.409,78.27 137.925,78.037 137.47,77.837C135.885,77.141 134.98,76.728 133.735,76.133C133.046,75.803 132.427,75.533 132.36,75.533C132.293,75.533 131.815,75.341 131.297,75.106C128.162,73.685 127.677,73.362 127.016,72.251C126.633,71.607 126.557,71.288 126.554,70.321C126.551,69.106 126.561,69.079 129.794,61.841C130.365,60.563 130.765,59.659 131.113,58.863C131.302,58.431 131.563,57.88 131.692,57.638C131.822,57.397 131.928,57.024 131.929,56.811C131.929,56.598 132.041,56.21 132.177,55.949C132.313,55.688 132.424,55.417 132.424,55.347C132.424,55.138 129.664,51.25 128.372,49.639C126.339,47.105 119.972,40.953 119.381,40.953C119.284,40.953 119.145,40.86 119.072,40.746C118.999,40.632 118.818,40.465 118.669,40.374C118.521,40.283 117.925,39.862 117.346,39.438C111.822,35.396 103.737,31.843 96.885,30.446L94.685,29.997L92.997,31.638C86.063,38.376 86.39,38.102 84.935,38.402C83.703,38.656 82.597,38.41 81.671,37.676C81.105,37.228 76.643,32.624 75.105,30.902C74.709,30.458 74.336,30.199 74.094,30.199C73.516,30.199 69.676,31.102 67.897,31.657C62.996,33.185 57.141,35.96 53.643,38.411C52.947,38.899 52.33,39.298 52.271,39.298C52.213,39.298 52.075,39.373 51.966,39.463C51.856,39.554 51.021,40.215 50.111,40.933C47.179,43.244 43.597,46.706 41.445,49.308C39.613,51.523 36.13,56.572 36.13,57.014C36.13,57.3 38.218,61.415 39.356,63.372C40.548,65.422 41.876,68.494 42.011,69.512C42.172,70.723 41.775,71.967 40.961,72.803C40.334,73.448 39.982,73.663 38.447,74.34C38.037,74.521 37.279,74.863 36.761,75.101C36.244,75.338 35.781,75.533 35.733,75.533C35.686,75.533 35.067,75.802 34.358,76.131C32.995,76.763 32.16,77.138 30.877,77.692C30.445,77.879 29.905,78.124 29.678,78.236L29.264,78.441L29.215,83.398C29.187,86.259 29.243,89.055 29.348,90.01C29.56,91.928 30.352,95.967 30.94,98.117C33.045,105.825 37.651,113.84 43.874,120.624C45.17,122.037 45.209,122.04 49.119,121.129C53.903,120.013 55.135,119.824 56.113,120.058C57.044,120.281 57.978,120.875 58.518,121.589C58.913,122.111 59.501,123.857 59.695,125.086C59.795,125.718 60.079,127.04 60.779,130.132C60.954,130.906 61.14,131.877 61.193,132.29C61.29,133.044 61.902,133.938 62.323,133.938C62.434,133.938 62.785,134.076 63.102,134.245C63.419,134.415 63.865,134.609 64.092,134.677C64.32,134.746 64.729,134.901 65.002,135.021C65.864,135.402 69.15,136.426 71.537,137.056C76.56,138.383 83.539,138.87 89.687,138.323L89.687,138.323ZM118.95,134.372C120.513,133.644 121.672,131.883 121.668,130.242C121.665,129.04 120.862,127.679 119.487,126.547C118.962,126.115 117.582,125.91 116.284,126.073C114.471,126.299 112.897,128.288 112.904,130.343C112.916,133.514 116.155,135.673 118.95,134.372ZM52.686,134.265C53.839,133.81 54.557,133.231 55.109,132.311C55.518,131.627 55.571,131.378 55.571,130.132C55.571,128.879 55.52,128.64 55.097,127.934C54.836,127.498 54.389,126.964 54.104,126.748C53.329,126.161 51.719,125.5 51.063,125.5C50.334,125.5 49.201,126.168 48.193,127.192C47.564,127.831 47.373,128.172 47.151,129.058C46.9,130.058 46.899,130.223 47.145,131.172C47.462,132.398 48.264,133.459 49.257,133.967C50.668,134.687 51.443,134.755 52.686,134.265L52.686,134.265ZM139.346,71.54C140.932,70.593 141.685,69.334 141.688,67.626C141.692,65.284 139.691,63.289 137.34,63.289C135.632,63.29 133.921,64.51 133.28,66.185C132.832,67.355 132.828,68.005 133.26,69.101C133.805,70.486 134.952,71.606 136.137,71.913C136.993,72.135 138.677,71.94 139.346,71.54L139.346,71.54ZM32.76,71.513C33.855,71.043 34.448,70.519 35.047,69.495C35.465,68.779 35.53,68.502 35.53,67.413C35.53,66.075 35.278,65.443 34.325,64.385C33.207,63.143 30.909,62.742 29.383,63.523C25.96,65.272 26.066,69.861 29.567,71.491C30.635,71.988 31.637,71.995 32.76,71.513ZM85.518,31.34C86.385,31.121 87.462,30.241 88.109,29.221C88.515,28.58 88.579,28.315 88.579,27.265C88.579,26.307 88.494,25.884 88.176,25.256C87.723,24.362 86.816,23.491 85.97,23.137C85.297,22.856 83.76,22.822 82.846,23.068C81.896,23.324 80.829,24.313 80.337,25.392C78.785,28.795 81.815,32.272 85.518,31.34L85.518,31.34Z" style="fill-rule:nonzero;stroke:black;stroke-width:0.62px;"/>
    </g>
    <g id="path9391" serif:id="path939" transform="matrix(1,0,0,1,0.0894062,175.093)">
        <path d="M0,753.545C1.326,751.528 3.494,748.649 4.612,746.745C12.908,732.621 22.396,720.695 24.135,718.828C25.093,717.799 26.127,717.038 26.655,716.721C27.107,716.451 28.133,715.763 29.938,715.763C31.744,715.763 32.78,716.434 33.221,716.721C33.713,717.041 34.417,717.636 35.742,718.828C37.632,720.528 46.763,732.322 55.264,746.719C56.812,749.34 59.276,753.156 60.739,755.198C63.262,758.72 63.646,758.91 68.375,758.911L68.39,758.852L69.449,758.911L69.473,758.911L74.554,758.911C78.058,758.911 79.205,758.82 80.511,757.427L80.515,757.448C81.015,756.919 81.537,756.201 82.222,755.224C83.644,753.196 86.073,749.381 87.621,746.745C95.916,732.621 105.405,720.695 107.143,718.828C108.102,717.799 109.136,717.038 109.664,716.721C110.116,716.451 111.141,715.763 112.947,715.763C114.753,715.763 115.788,716.434 116.23,716.721C116.722,717.041 117.426,717.636 118.751,718.828C120.641,720.528 129.771,732.322 138.273,746.719C139.821,749.34 142.284,753.156 143.748,755.198C146.271,758.72 146.654,758.91 151.383,758.911L151.398,758.852L152.458,758.911L157.54,758.911C162.39,758.911 162.739,758.743 165.207,755.224C166.629,753.196 169.059,749.381 170.606,746.745C178.902,732.621 188.39,720.695 190.129,718.828C191.087,717.799 192.121,717.038 192.649,716.721C193.101,716.451 194.127,715.763 195.932,715.763C197.738,715.763 198.774,716.434 199.215,716.721C199.707,717.041 200.411,717.636 201.736,718.828C203.626,720.528 212.757,732.322 221.258,746.719C222.806,749.34 225.27,753.156 226.733,755.198C229.262,758.728 229.641,758.911 234.4,758.911L235.9,758.911L235.914,758.852L236.974,758.911L242.056,758.911C246.906,758.911 247.256,758.743 249.723,755.224C251.145,753.196 253.575,749.381 255.123,746.745C263.418,732.621 272.906,720.695 274.645,718.828C275.603,717.799 276.637,717.038 277.166,716.721C277.618,716.451 278.643,715.763 280.449,715.763C282.254,715.763 283.29,716.434 283.732,716.721C284.223,717.041 284.927,717.636 286.252,718.828C288.143,720.528 297.273,732.322 305.775,746.719C307.322,749.34 309.786,753.156 311.249,755.198C313.773,758.72 314.156,758.91 318.885,758.911L318.9,758.852L319.96,758.911L325.042,758.911C329.892,758.911 330.241,758.743 332.709,755.224C334.131,753.196 336.56,749.381 338.108,746.745C346.404,732.621 355.892,720.695 357.63,718.828C358.589,717.799 359.623,717.038 360.151,716.721C360.603,716.451 361.628,715.763 363.434,715.763C365.24,715.763 366.275,716.434 366.717,716.721C367.209,717.041 367.913,717.636 369.238,718.828C371.128,720.528 380.258,732.322 388.76,746.719C390.308,749.34 392.771,753.156 394.235,755.198C396.764,758.728 397.143,758.911 401.902,758.911L405.257,758.911C410.107,758.911 410.456,758.743 412.924,755.224C414.346,753.196 416.776,749.381 418.323,746.745C426.619,732.621 436.107,720.695 437.846,718.828C438.804,717.799 439.838,717.038 440.366,716.721C440.818,716.451 441.844,715.763 443.649,715.763C445.455,715.763 446.491,716.434 446.932,716.721C447.424,717.041 448.128,717.636 449.453,718.828C451.343,720.528 460.474,732.322 468.975,746.719C470.523,749.34 472.987,753.156 474.45,755.198C476.973,758.72 477.357,758.91 482.086,758.911L482.101,758.852L483.16,758.911L488.242,758.911C493.092,758.911 493.442,758.743 495.909,755.224C497.331,753.196 499.761,749.381 501.309,746.745C509.604,732.621 519.093,720.695 520.831,718.828C521.79,717.799 522.823,717.038 523.352,716.721C523.804,716.451 524.829,715.763 526.635,715.763C528.44,715.763 529.476,716.434 529.918,716.721C530.409,717.041 531.114,717.636 532.439,718.828C534.329,720.528 543.459,732.322 551.961,746.719C553.509,749.34 555.972,753.156 557.436,755.198C559.965,758.728 560.344,758.911 565.103,758.911L566.602,758.911L566.617,758.852L567.677,758.911L572.758,758.911C577.609,758.911 577.958,758.743 580.426,755.224C581.848,753.196 584.277,749.381 585.825,746.745C594.12,732.621 603.609,720.695 605.347,718.828C606.306,717.799 607.34,717.038 607.868,716.721C608.32,716.451 609.345,715.763 611.151,715.763C612.957,715.763 613.992,716.434 614.434,716.721C614.926,717.041 615.63,717.636 616.955,718.828C618.845,720.528 627.975,732.322 636.477,746.719C638.025,749.34 640.488,753.156 641.952,755.198C644.475,758.72 644.858,758.91 649.587,758.911L649.602,758.852L650.662,758.911L655.744,758.911C660.594,758.911 660.944,758.743 663.411,755.224C664.833,753.196 667.263,749.381 668.81,746.745C677.106,732.621 686.594,720.695 688.333,718.828C689.291,717.799 690.325,717.038 690.853,716.721C691.306,716.451 692.331,715.763 694.137,715.763C695.942,715.763 696.978,716.434 697.42,716.721C697.911,717.041 698.615,717.636 699.94,718.828C701.83,720.528 710.961,732.322 719.463,746.719C721.01,749.34 723.474,753.156 724.937,755.198C727.466,758.728 727.846,758.911 732.604,758.911L734.682,758.911L734.697,758.852L735.757,758.911L740.839,758.911C745.689,758.911 746.038,758.743 748.506,755.224C749.928,753.196 752.358,749.381 753.905,746.745C762.201,732.621 771.689,720.695 773.428,718.828C774.386,717.799 775.42,717.038 775.948,716.721C776.4,716.451 777.426,715.763 779.231,715.763C781.037,715.763 782.073,716.434 782.514,716.721C783.006,717.041 783.71,717.636 785.035,718.828C786.925,720.528 796.056,732.322 804.557,746.719C806.105,749.34 808.569,753.156 810.032,755.198C812.555,758.72 812.939,758.91 817.668,758.911L817.682,758.852L818.742,758.911L823.824,758.911C828.674,758.911 829.024,758.743 831.491,755.224C832.913,753.196 835.343,749.381 836.891,746.745C845.186,732.621 854.674,720.695 856.413,718.828C857.371,717.799 858.405,717.038 858.934,716.721C859.386,716.451 860.411,715.763 862.217,715.763C864.022,715.763 865.058,716.434 865.5,716.721C865.991,717.041 866.695,717.636 868.02,718.828C869.911,720.528 879.041,732.322 887.543,746.719C889.09,749.34 891.554,753.156 893.017,755.198C895.546,758.728 895.926,758.911 900.685,758.911L902.184,758.911L902.199,758.852L903.259,758.911L908.34,758.911C913.19,758.911 913.54,758.743 916.008,755.224C917.43,753.196 919.859,749.381 921.407,746.745C929.702,732.621 939.191,720.695 940.929,718.828C941.888,717.799 942.922,717.038 943.45,716.721C943.902,716.451 944.927,715.763 946.733,715.763C948.539,715.763 949.574,716.434 950.016,716.721C950.508,717.041 951.212,717.636 952.537,718.828C954.427,720.528 963.557,732.322 972.059,746.719C973.607,749.34 976.07,753.156 977.534,755.198C980.057,758.72 980.44,758.91 985.169,758.911L985.184,758.852L986.244,758.911L991.326,758.911C996.176,758.911 996.525,758.743 998.993,755.224C1000.42,753.196 1002.85,749.381 1004.39,746.745C1012.69,732.621 1022.18,720.695 1023.92,718.828C1024.87,717.799 1025.91,717.038 1026.43,716.721C1026.89,716.451 1027.91,715.763 1029.72,715.763C1031.52,715.763 1032.56,716.434 1033,716.721C1033.49,717.041 1034.2,717.636 1035.52,718.828C1037.41,720.528 1046.54,732.322 1055.04,746.719C1056.59,749.34 1059.06,753.156 1060.52,755.198C1063.05,758.728 1063.43,758.911 1068.19,758.911L1079.99,759.052C1080.09,764.52 1079.56,789.571 1079.99,792.487C1076.94,791.872 14.225,792.966 0,792.987C-0.3,780.647 0.275,764.486 0,753.545Z"/>
    </g>
</svg>
