<?xml version="1.0" encoding="UTF-8" standalone="no"?>
<!DOCTYPE svg PUBLIC "-//W3C//DTD SVG 1.1//EN" "http://www.w3.org/Graphics/SVG/1.1/DTD/svg11.dtd">
<svg width="100%" height="100%" viewBox="0 0 1241 1066" version="1.1" xmlns="http://www.w3.org/2000/svg" xmlns:xlink="http://www.w3.org/1999/xlink" xml:space="preserve" xmlns:serif="http://www.serif.com/" style="fill-rule:evenodd;clip-rule:evenodd;stroke-linecap:round;stroke-linejoin:round;stroke-miterlimit:1.5;">
    <g id="Mesa-de-trabajo1" serif:id="Mesa de trabajo1" transform="matrix(1.23022,0,0,1.10117,103.361,80.2571)">
        <rect x="-84.018" y="-72.883" width="1008.25" height="967.609" style="fill:none;"/>
        <g transform="matrix(0.812864,0,0,0.94884,-80.1792,-56.2472)">
            <path d="M1145.29,362.927L1145.29,621.787C1145.29,693.222 1084.69,751.218 1010.06,751.218L220.859,751.218C146.222,751.218 85.626,693.222 85.626,621.787L85.626,362.927C85.626,291.492 146.222,233.496 220.859,233.496L1010.06,233.496C1084.69,233.496 1145.29,291.492 1145.29,362.927Z" style="fill:white;"/>
        </g>
        <g transform="matrix(0.761938,0,0,0.851231,35.5733,185.577)">
            <g id="Capa1">
                <g>
                    <g transform="matrix(1.06684,0,0,1.06684,-40.5196,-171.573)">
                        <circle cx="256.386" cy="408.966" r="65.45" style="fill:none;stroke:black;stroke-width:9.88px;"/>
                    </g>
                    <g transform="matrix(1.06684,0,0,1.06684,502.825,-171.573)">
                        <circle cx="256.386" cy="408.966" r="65.45" style="fill:none;stroke:black;stroke-width:9.88px;"/>
                    </g>
                    <g transform="matrix(0.826333,0,0,0.8318,563.664,-75.8202)">
                        <circle cx="256.386" cy="408.966" r="65.45" style="fill:none;stroke:black;stroke-width:12.72px;"/>
                    </g>
                    <g transform="matrix(0.826333,0,0,0.8318,21.1426,-75.8202)">
                        <circle cx="256.386" cy="408.966" r="65.45" style="fill:none;stroke:black;stroke-width:12.72px;"/>
                    </g>
                    <g transform="matrix(0.598803,0,0,0.598803,621.999,19.4675)">
                        <circle cx="256.386" cy="408.966" r="65.45" style="fill:none;stroke:black;stroke-width:17.61px;"/>
                    </g>
                    <g transform="matrix(0.598803,0,0,0.598803,79.478,19.4675)">
                        <circle cx="256.386" cy="408.966" r="65.45" style="fill:none;stroke:black;stroke-width:17.61px;"/>
                    </g>
                    <g transform="matrix(1.15955,0,0,1.15955,-658.964,-189.009)">
                        <circle cx="769.233" cy="391.302" r="214.665" style="fill:none;stroke:black;stroke-width:9.09px;"/>
                    </g>
                    <g transform="matrix(1.15955,0,0,1.15955,-115.619,-189.009)">
                        <circle cx="769.233" cy="391.302" r="214.665" style="fill:none;stroke:black;stroke-width:9.09px;"/>
                    </g>
                    <g transform="matrix(0.829245,0,0,0.845447,-11.6243,12.0226)">
                        <g>
                            <clipPath id="_clip1">
                                <path d="M287.029,28.979C288.865,26.45 291.835,24.948 295,24.948C298.165,24.948 301.135,26.45 302.971,28.979C307.356,35.019 312.561,42.189 315.864,46.737L323.284,47.432C327.405,43.578 333.902,37.502 339.374,32.384C341.664,30.243 344.868,29.32 347.975,29.907C351.082,30.495 353.707,32.52 355.021,35.342C358.162,42.088 361.891,50.097 364.257,55.178L371.409,57.238C376.612,53.958 385.072,48.625 391.725,44.431C394.015,42.988 396.876,42.72 399.403,43.712C401.93,44.704 403.811,46.834 404.453,49.429C406.318,56.968 408.689,66.554 410.147,72.449L416.772,75.799C422.081,73.714 430.462,70.423 437.499,67.66C440.416,66.515 443.718,66.824 446.362,68.49C449.005,70.156 450.663,72.974 450.813,76.052C451.174,83.479 451.603,92.324 451.875,97.926L457.734,102.445C463.316,101.39 472.109,99.728 479.525,98.326C482.641,97.737 485.855,98.663 488.151,100.811C490.448,102.959 491.544,106.063 491.092,109.144C490.017,116.476 488.743,125.17 487.934,130.689L492.815,136.214L515.042,136.214C518.207,136.214 521.177,137.716 523.013,140.244C524.849,142.773 525.324,146.017 524.289,148.95C521.817,155.957 518.881,164.276 517.019,169.553L520.746,175.884C526.336,176.941 535.149,178.607 542.572,180.01C545.68,180.598 548.306,182.623 549.621,185.447C550.935,188.271 550.776,191.544 549.194,194.233C545.414,200.654 540.927,208.277 538.08,213.113L540.518,220.022C545.804,222.097 554.135,225.369 561.153,228.125C564.092,229.279 566.279,231.755 567.026,234.772C567.772,237.789 566.984,240.973 564.912,243.32C559.961,248.923 554.084,255.576 550.356,259.796L551.416,267.032C556.206,270.051 563.756,274.81 570.115,278.819C572.778,280.498 574.448,283.335 574.599,286.436C574.75,289.537 573.362,292.518 570.874,294.437C564.931,299.021 557.877,304.462 553.402,307.914L553.047,315.216C557.168,319.07 563.663,325.144 569.134,330.261C571.425,332.403 572.517,335.5 572.067,338.573C571.616,341.646 569.679,344.315 566.865,345.737C560.146,349.135 552.169,353.169 547.109,355.727L545.352,362.832C548.654,367.381 553.86,374.551 558.245,380.591C560.081,383.12 560.556,386.363 559.521,389.297C558.486,392.231 556.068,394.492 553.031,395.367C545.777,397.456 537.167,399.936 531.704,401.509L528.607,408.159C530.973,413.239 534.701,421.245 537.841,427.99C539.156,430.814 538.997,434.087 537.414,436.776C535.832,439.464 533.021,441.236 529.871,441.531C522.345,442.236 513.411,443.073 507.744,443.603L503.42,449.559C504.763,454.986 506.878,463.54 508.661,470.746C509.407,473.762 508.619,476.947 506.546,479.293C504.474,481.639 501.372,482.857 498.221,482.562C490.696,481.857 481.762,481.021 476.095,480.49L470.7,485.535C470.971,491.113 471.398,499.905 471.758,507.312C471.908,510.412 470.521,513.393 468.033,515.312C465.545,517.231 462.264,517.851 459.227,516.977C451.974,514.888 443.363,512.408 437.9,510.835L431.63,514.787C430.82,520.315 429.542,529.027 428.467,536.367C428.016,539.44 426.078,542.109 423.265,543.531C420.452,544.954 417.111,544.954 414.298,543.531C407.578,540.134 399.602,536.1 394.541,533.541L387.621,536.259C385.759,541.536 382.824,549.854 380.351,556.861C379.316,559.795 376.898,562.056 373.861,562.931C370.825,563.805 367.544,563.185 365.056,561.266C359.114,556.682 352.059,551.241 347.584,547.789L340.265,549.173C337.419,554.009 332.931,561.632 329.152,568.053C327.569,570.742 324.758,572.514 321.608,572.809C318.457,573.104 315.355,571.886 313.283,569.54C308.332,563.936 302.455,557.283 298.727,553.063L291.273,553.063C287.545,557.283 281.668,563.936 276.717,569.54C274.645,571.886 271.543,573.104 268.392,572.809C265.242,572.514 262.431,570.742 260.848,568.053C257.069,561.632 252.581,554.009 249.735,549.173L242.416,547.789C237.941,551.241 230.886,556.682 224.944,561.266C222.456,563.185 219.175,563.805 216.139,562.931C213.102,562.056 210.684,559.795 209.649,556.861C207.176,549.854 204.241,541.536 202.379,536.259L195.459,533.541C190.398,536.1 182.422,540.134 175.702,543.531C172.889,544.954 169.548,544.954 166.735,543.531C163.922,542.109 161.984,539.44 161.533,536.367C160.458,529.027 159.18,520.315 158.37,514.787L152.1,510.835C146.637,512.408 138.026,514.888 130.773,516.977C127.736,517.851 124.455,517.231 121.967,515.312C119.479,513.393 118.092,510.412 118.242,507.312C118.602,499.905 119.029,491.113 119.3,485.535L113.905,480.49C108.238,481.021 99.304,481.857 91.779,482.562C88.628,482.857 85.526,481.639 83.454,479.293C81.381,476.947 80.593,473.762 81.339,470.746C83.122,463.54 85.237,454.986 86.58,449.559L82.256,443.603C76.589,443.073 67.655,442.236 60.129,441.531C56.979,441.236 54.168,439.464 52.586,436.776C51.003,434.087 50.844,430.814 52.159,427.99C55.299,421.245 59.027,413.239 61.393,408.159L58.296,401.509C52.833,399.936 44.223,397.456 36.969,395.367C33.932,394.492 31.514,392.231 30.479,389.297C29.444,386.363 29.919,383.12 31.755,380.591C36.14,374.551 41.346,367.381 44.648,362.832L42.891,355.727C37.831,353.169 29.854,349.135 23.135,345.737C20.321,344.315 18.384,341.646 17.933,338.573C17.483,335.5 18.575,332.403 20.866,330.261C26.337,325.144 32.832,319.07 36.953,315.216L36.598,307.914C32.123,304.462 25.069,299.021 19.126,294.437C16.638,292.518 15.25,289.537 15.401,286.436C15.552,283.335 17.222,280.498 19.885,278.819C26.244,274.81 33.794,270.051 38.584,267.032L39.644,259.796C35.916,255.576 30.039,248.923 25.088,243.32C23.016,240.973 22.228,237.789 22.974,234.772C23.721,231.755 25.908,229.279 28.847,228.125C35.865,225.369 44.196,222.097 49.482,220.022L51.92,213.113C49.073,208.277 44.586,200.654 40.806,194.233C39.224,191.544 39.065,188.271 40.379,185.447C41.694,182.623 44.32,180.598 47.428,180.01C54.851,178.607 63.664,176.941 69.254,175.884L72.981,169.553C71.119,164.276 68.183,155.957 65.711,148.95C64.676,146.017 65.151,142.773 66.987,140.244C68.823,137.716 71.793,136.214 74.958,136.214L97.185,136.214L102.066,130.689C101.256,125.161 99.979,116.449 98.903,109.109C98.452,106.037 99.545,102.94 101.836,100.798C104.126,98.655 107.332,97.732 110.44,98.32C117.863,99.723 126.675,101.389 132.266,102.445L138.125,97.926C138.396,92.348 138.823,83.556 139.182,76.149C139.333,73.049 141.003,70.211 143.666,68.532C146.329,66.854 149.654,66.542 152.593,67.696C159.611,70.452 167.942,73.724 173.228,75.799L179.853,72.449C181.195,67.022 183.311,58.468 185.093,51.262C185.84,48.245 188.027,45.769 190.966,44.615C193.904,43.461 197.23,43.773 199.892,45.451C206.252,49.46 213.802,54.219 218.591,57.238L225.743,55.178C228.108,50.098 231.836,42.092 234.977,35.347C236.292,32.523 238.918,30.497 242.026,29.91C245.133,29.322 248.339,30.245 250.63,32.388C256.101,37.505 262.596,43.579 266.716,47.432L274.136,46.737C277.439,42.189 282.644,35.019 287.029,28.979Z"/>
                            </clipPath>
                            <g clip-path="url(#_clip1)">
                                <g transform="matrix(1.28652,0,0,1.26186,-341.082,-193.513)">
                                    <path d="M488.226,176.321C489.653,174.316 491.962,173.126 494.422,173.126C496.882,173.126 499.191,174.316 500.618,176.321C504.026,181.107 508.072,186.789 510.639,190.393L516.407,190.944C519.61,187.89 524.66,183.075 528.913,179.019C530.693,177.322 533.184,176.591 535.599,177.056C538.014,177.522 540.054,179.127 541.076,181.363C543.517,186.709 546.416,193.056 548.255,197.083L553.814,198.715C557.858,196.116 564.434,191.89 569.606,188.566C571.386,187.422 573.609,187.21 575.574,187.996C577.538,188.782 579,190.47 579.499,192.527C580.949,198.501 582.792,206.098 583.925,210.77L589.074,213.424C593.201,211.772 599.716,209.164 605.185,206.974C607.453,206.067 610.019,206.312 612.074,207.632C614.129,208.953 615.418,211.186 615.534,213.625C615.815,219.511 616.148,226.52 616.36,230.96L620.914,234.541C625.253,233.705 632.087,232.388 637.852,231.277C640.274,230.81 642.772,231.544 644.557,233.246C646.342,234.948 647.194,237.408 646.843,239.85C646.007,245.66 645.017,252.55 644.388,256.924L648.182,261.302L665.459,261.302C667.919,261.302 670.228,262.492 671.655,264.496C673.082,266.5 673.451,269.071 672.647,271.395C670.725,276.948 668.443,283.541 666.996,287.723L669.893,292.74C674.238,293.577 681.088,294.898 686.858,296.01C689.274,296.476 691.315,298.08 692.337,300.318C693.358,302.556 693.235,305.15 692.005,307.281C689.067,312.369 685.579,318.411 683.366,322.243L685.261,327.718C689.37,329.363 695.846,331.956 701.301,334.14C703.585,335.054 705.285,337.016 705.866,339.407C706.446,341.798 705.833,344.321 704.223,346.181C700.374,350.622 695.806,355.894 692.908,359.238L693.732,364.973C697.455,367.365 703.324,371.137 708.267,374.314C710.337,375.644 711.635,377.892 711.752,380.35C711.87,382.807 710.791,385.17 708.857,386.691C704.237,390.323 698.754,394.635 695.276,397.371L695,403.158C698.203,406.212 703.252,411.025 707.504,415.08C709.285,416.778 710.134,419.232 709.784,421.667C709.434,424.103 707.928,426.218 705.741,427.345C700.518,430.038 694.318,433.234 690.384,435.262L689.019,440.892C691.585,444.497 695.632,450.179 699.04,454.966C700.467,456.97 700.837,459.54 700.032,461.865C699.228,464.19 697.348,465.982 694.988,466.676C689.349,468.331 682.657,470.296 678.41,471.543L676.003,476.813C677.842,480.839 680.74,487.183 683.18,492.529C684.203,494.767 684.079,497.36 682.849,499.491C681.619,501.621 679.434,503.026 676.985,503.26C671.136,503.818 664.191,504.482 659.786,504.902L656.425,509.622C657.469,513.922 659.113,520.701 660.499,526.412C661.079,528.802 660.466,531.326 658.855,533.185C657.245,535.044 654.833,536.01 652.384,535.776C646.535,535.217 639.591,534.555 635.186,534.134L630.992,538.132C631.203,542.552 631.535,549.52 631.815,555.39C631.931,557.846 630.853,560.209 628.919,561.729C626.985,563.25 624.435,563.742 622.074,563.049C616.437,561.393 609.743,559.428 605.497,558.182L600.623,561.313C599.994,565.694 599,572.598 598.165,578.415C597.814,580.85 596.308,582.966 594.121,584.092C591.935,585.22 589.338,585.22 587.151,584.092C581.928,581.4 575.728,578.204 571.794,576.176L566.416,578.33C564.968,582.511 562.687,589.103 560.765,594.656C559.96,596.981 558.081,598.773 555.72,599.467C553.36,600.159 550.81,599.668 548.876,598.147C544.257,594.514 538.773,590.202 535.295,587.467L529.606,588.564C527.394,592.396 523.905,598.437 520.968,603.526C519.738,605.657 517.553,607.061 515.104,607.295C512.655,607.528 510.244,606.563 508.633,604.704C504.785,600.263 500.217,594.991 497.319,591.646L491.525,591.646C488.627,594.991 484.059,600.263 480.211,604.704C478.6,606.563 476.189,607.528 473.74,607.295C471.291,607.061 469.106,605.657 467.876,603.526C464.938,598.437 461.45,592.396 459.238,588.564L453.549,587.467C450.07,590.202 444.587,594.514 439.968,598.147C438.034,599.668 435.484,600.159 433.124,599.467C430.763,598.773 428.884,596.981 428.079,594.656C426.157,589.103 423.876,582.511 422.428,578.33L417.049,576.176C413.115,578.204 406.916,581.4 401.692,584.092C399.506,585.22 396.909,585.22 394.722,584.092C392.536,582.966 391.029,580.85 390.679,578.415C389.843,572.598 388.85,565.694 388.22,561.313L383.347,558.182C379.1,559.428 372.407,561.393 366.769,563.049C364.409,563.742 361.858,563.25 359.925,561.729C357.991,560.209 356.913,557.846 357.029,555.39C357.309,549.52 357.641,542.552 357.852,538.132L353.658,534.134C349.253,534.555 342.309,535.217 336.46,535.776C334.01,536.01 331.599,535.044 329.989,533.185C328.377,531.326 327.765,528.802 328.345,526.412C329.731,520.701 331.375,513.922 332.418,509.622L329.057,504.902C324.653,504.482 317.708,503.818 311.858,503.26C309.41,503.026 307.225,501.621 305.995,499.491C304.765,497.36 304.641,494.767 305.663,492.529C308.104,487.183 311.002,480.839 312.841,476.813L310.434,471.543C306.187,470.296 299.495,468.331 293.856,466.676C291.496,465.982 289.616,464.19 288.812,461.865C288.007,459.54 288.376,456.97 289.803,454.966C293.212,450.179 297.258,444.497 299.825,440.892L298.459,435.262C294.526,433.234 288.326,430.038 283.103,427.345C280.916,426.218 279.41,424.103 279.06,421.667C278.71,419.232 279.559,416.778 281.339,415.08C285.592,411.025 290.641,406.212 293.844,403.158L293.568,397.371C290.089,394.635 284.606,390.323 279.987,386.691C278.053,385.17 276.974,382.807 277.092,380.35C277.209,377.892 278.507,375.644 280.577,374.314C285.52,371.137 291.388,367.365 295.112,364.973L295.935,359.238C293.038,355.894 288.47,350.622 284.621,346.181C283.011,344.321 282.398,341.798 282.978,339.407C283.559,337.016 285.259,335.054 287.543,334.14C292.998,331.956 299.474,329.363 303.582,327.718L305.478,322.243C303.265,318.411 299.777,312.369 296.839,307.281C295.609,305.15 295.485,302.556 296.507,300.318C297.529,298.08 299.57,296.476 301.986,296.01C307.756,294.898 314.606,293.577 318.951,292.74L321.848,287.723C320.401,283.541 318.119,276.948 316.197,271.395C315.393,269.071 315.762,266.5 317.189,264.496C318.616,262.492 320.925,261.302 323.385,261.302L340.662,261.302L344.456,256.924C343.826,252.543 342.833,245.639 341.997,239.822C341.647,237.387 342.496,234.933 344.277,233.236C346.057,231.537 348.549,230.806 350.965,231.272C356.735,232.384 363.584,233.704 367.93,234.541L372.484,230.96C372.695,226.539 373.027,219.572 373.306,213.702C373.423,211.245 374.721,208.996 376.791,207.666C378.861,206.336 381.445,206.088 383.73,207.003C389.185,209.187 395.661,211.78 399.769,213.424L404.919,210.77C405.962,206.469 407.607,199.69 408.992,193.979C409.573,191.588 411.273,189.626 413.557,188.712C415.841,187.797 418.426,188.045 420.495,189.374C425.439,192.551 431.307,196.323 435.03,198.715L440.589,197.083C442.427,193.057 445.325,186.712 447.766,181.367C448.789,179.129 450.83,177.524 453.246,177.058C455.661,176.592 458.153,177.324 459.933,179.022C464.186,183.077 469.234,187.891 472.437,190.944L478.204,190.393C480.772,186.789 484.818,181.107 488.226,176.321ZM495.225,223.199C587.249,223.199 661.962,297.912 661.962,389.936C661.962,481.961 587.249,556.674 495.225,556.674C403.2,556.674 328.487,481.961 328.487,389.936C328.487,297.912 403.2,223.199 495.225,223.199Z"/>
                                </g>
                            </g>
                        </g>
                    </g>
                    <g transform="matrix(0.829245,0,0,0.845447,531.72,12.0226)">
                        <g>
                            <clipPath id="_clip2">
                                <path d="M287.029,28.979C288.865,26.45 291.835,24.948 295,24.948C298.165,24.948 301.135,26.45 302.971,28.979C307.356,35.019 312.561,42.189 315.864,46.737L323.284,47.432C327.405,43.578 333.902,37.502 339.374,32.384C341.664,30.243 344.868,29.32 347.975,29.907C351.082,30.495 353.707,32.52 355.021,35.342C358.162,42.088 361.891,50.097 364.257,55.178L371.409,57.238C376.612,53.958 385.072,48.625 391.725,44.431C394.015,42.988 396.876,42.72 399.403,43.712C401.93,44.704 403.811,46.834 404.453,49.429C406.318,56.968 408.689,66.554 410.147,72.449L416.772,75.799C422.081,73.714 430.462,70.423 437.499,67.66C440.416,66.515 443.718,66.824 446.362,68.49C449.005,70.156 450.663,72.974 450.813,76.052C451.174,83.479 451.603,92.324 451.875,97.926L457.734,102.445C463.316,101.39 472.109,99.728 479.525,98.326C482.641,97.737 485.855,98.663 488.151,100.811C490.448,102.959 491.544,106.063 491.092,109.144C490.017,116.476 488.743,125.17 487.934,130.689L492.815,136.214L515.042,136.214C518.207,136.214 521.177,137.716 523.013,140.244C524.849,142.773 525.324,146.017 524.289,148.95C521.817,155.957 518.881,164.276 517.019,169.553L520.746,175.884C526.336,176.941 535.149,178.607 542.572,180.01C545.68,180.598 548.306,182.623 549.621,185.447C550.935,188.271 550.776,191.544 549.194,194.233C545.414,200.654 540.927,208.277 538.08,213.113L540.518,220.022C545.804,222.097 554.135,225.369 561.153,228.125C564.092,229.279 566.279,231.755 567.026,234.772C567.772,237.789 566.984,240.973 564.912,243.32C559.961,248.923 554.084,255.576 550.356,259.796L551.416,267.032C556.206,270.051 563.756,274.81 570.115,278.819C572.778,280.498 574.448,283.335 574.599,286.436C574.75,289.537 573.362,292.518 570.874,294.437C564.931,299.021 557.877,304.462 553.402,307.914L553.047,315.216C557.168,319.07 563.663,325.144 569.134,330.261C571.425,332.403 572.517,335.5 572.067,338.573C571.616,341.646 569.679,344.315 566.865,345.737C560.146,349.135 552.169,353.169 547.109,355.727L545.352,362.832C548.654,367.381 553.86,374.551 558.245,380.591C560.081,383.12 560.556,386.363 559.521,389.297C558.486,392.231 556.068,394.492 553.031,395.367C545.777,397.456 537.167,399.936 531.704,401.509L528.607,408.159C530.973,413.239 534.701,421.245 537.841,427.99C539.156,430.814 538.997,434.087 537.414,436.776C535.832,439.464 533.021,441.236 529.871,441.531C522.345,442.236 513.411,443.073 507.744,443.603L503.42,449.559C504.763,454.986 506.878,463.54 508.661,470.746C509.407,473.762 508.619,476.947 506.546,479.293C504.474,481.639 501.372,482.857 498.221,482.562C490.696,481.857 481.762,481.021 476.095,480.49L470.7,485.535C470.971,491.113 471.398,499.905 471.758,507.312C471.908,510.412 470.521,513.393 468.033,515.312C465.545,517.231 462.264,517.851 459.227,516.977C451.974,514.888 443.363,512.408 437.9,510.835L431.63,514.787C430.82,520.315 429.542,529.027 428.467,536.367C428.016,539.44 426.078,542.109 423.265,543.531C420.452,544.954 417.111,544.954 414.298,543.531C407.578,540.134 399.602,536.1 394.541,533.541L387.621,536.259C385.759,541.536 382.824,549.854 380.351,556.861C379.316,559.795 376.898,562.056 373.861,562.931C370.825,563.805 367.544,563.185 365.056,561.266C359.114,556.682 352.059,551.241 347.584,547.789L340.265,549.173C337.419,554.009 332.931,561.632 329.152,568.053C327.569,570.742 324.758,572.514 321.608,572.809C318.457,573.104 315.355,571.886 313.283,569.54C308.332,563.936 302.455,557.283 298.727,553.063L291.273,553.063C287.545,557.283 281.668,563.936 276.717,569.54C274.645,571.886 271.543,573.104 268.392,572.809C265.242,572.514 262.431,570.742 260.848,568.053C257.069,561.632 252.581,554.009 249.735,549.173L242.416,547.789C237.941,551.241 230.886,556.682 224.944,561.266C222.456,563.185 219.175,563.805 216.139,562.931C213.102,562.056 210.684,559.795 209.649,556.861C207.176,549.854 204.241,541.536 202.379,536.259L195.459,533.541C190.398,536.1 182.422,540.134 175.702,543.531C172.889,544.954 169.548,544.954 166.735,543.531C163.922,542.109 161.984,539.44 161.533,536.367C160.458,529.027 159.18,520.315 158.37,514.787L152.1,510.835C146.637,512.408 138.026,514.888 130.773,516.977C127.736,517.851 124.455,517.231 121.967,515.312C119.479,513.393 118.092,510.412 118.242,507.312C118.602,499.905 119.029,491.113 119.3,485.535L113.905,480.49C108.238,481.021 99.304,481.857 91.779,482.562C88.628,482.857 85.526,481.639 83.454,479.293C81.381,476.947 80.593,473.762 81.339,470.746C83.122,463.54 85.237,454.986 86.58,449.559L82.256,443.603C76.589,443.073 67.655,442.236 60.129,441.531C56.979,441.236 54.168,439.464 52.586,436.776C51.003,434.087 50.844,430.814 52.159,427.99C55.299,421.245 59.027,413.239 61.393,408.159L58.296,401.509C52.833,399.936 44.223,397.456 36.969,395.367C33.932,394.492 31.514,392.231 30.479,389.297C29.444,386.363 29.919,383.12 31.755,380.591C36.14,374.551 41.346,367.381 44.648,362.832L42.891,355.727C37.831,353.169 29.854,349.135 23.135,345.737C20.321,344.315 18.384,341.646 17.933,338.573C17.483,335.5 18.575,332.403 20.866,330.261C26.337,325.144 32.832,319.07 36.953,315.216L36.598,307.914C32.123,304.462 25.069,299.021 19.126,294.437C16.638,292.518 15.25,289.537 15.401,286.436C15.552,283.335 17.222,280.498 19.885,278.819C26.244,274.81 33.794,270.051 38.584,267.032L39.644,259.796C35.916,255.576 30.039,248.923 25.088,243.32C23.016,240.973 22.228,237.789 22.974,234.772C23.721,231.755 25.908,229.279 28.847,228.125C35.865,225.369 44.196,222.097 49.482,220.022L51.92,213.113C49.073,208.277 44.586,200.654 40.806,194.233C39.224,191.544 39.065,188.271 40.379,185.447C41.694,182.623 44.32,180.598 47.428,180.01C54.851,178.607 63.664,176.941 69.254,175.884L72.981,169.553C71.119,164.276 68.183,155.957 65.711,148.95C64.676,146.017 65.151,142.773 66.987,140.244C68.823,137.716 71.793,136.214 74.958,136.214L97.185,136.214L102.066,130.689C101.256,125.161 99.979,116.449 98.903,109.109C98.452,106.037 99.545,102.94 101.836,100.798C104.126,98.655 107.332,97.732 110.44,98.32C117.863,99.723 126.675,101.389 132.266,102.445L138.125,97.926C138.396,92.348 138.823,83.556 139.182,76.149C139.333,73.049 141.003,70.211 143.666,68.532C146.329,66.854 149.654,66.542 152.593,67.696C159.611,70.452 167.942,73.724 173.228,75.799L179.853,72.449C181.195,67.022 183.311,58.468 185.093,51.262C185.84,48.245 188.027,45.769 190.966,44.615C193.904,43.461 197.23,43.773 199.892,45.451C206.252,49.46 213.802,54.219 218.591,57.238L225.743,55.178C228.108,50.098 231.836,42.092 234.977,35.347C236.292,32.523 238.918,30.497 242.026,29.91C245.133,29.322 248.339,30.245 250.63,32.388C256.101,37.505 262.596,43.579 266.716,47.432L274.136,46.737C277.439,42.189 282.644,35.019 287.029,28.979Z"/>
                            </clipPath>
                            <g clip-path="url(#_clip2)">
                                <g transform="matrix(1.28652,0,0,1.26186,-341.082,-193.513)">
                                    <path d="M488.226,176.321C489.653,174.316 491.962,173.126 494.422,173.126C496.882,173.126 499.191,174.316 500.618,176.321C504.026,181.107 508.072,186.789 510.639,190.393L516.407,190.944C519.61,187.89 524.66,183.075 528.913,179.019C530.693,177.322 533.184,176.591 535.599,177.056C538.014,177.522 540.054,179.127 541.076,181.363C543.517,186.709 546.416,193.056 548.255,197.083L553.814,198.715C557.858,196.116 564.434,191.89 569.606,188.566C571.386,187.422 573.609,187.21 575.574,187.996C577.538,188.782 579,190.47 579.499,192.527C580.949,198.501 582.792,206.098 583.925,210.77L589.074,213.424C593.201,211.772 599.716,209.164 605.185,206.974C607.453,206.067 610.019,206.312 612.074,207.632C614.129,208.953 615.418,211.186 615.534,213.625C615.815,219.511 616.148,226.52 616.36,230.96L620.914,234.541C625.253,233.705 632.087,232.388 637.852,231.277C640.274,230.81 642.772,231.544 644.557,233.246C646.342,234.948 647.194,237.408 646.843,239.85C646.007,245.66 645.017,252.55 644.388,256.924L648.182,261.302L665.459,261.302C667.919,261.302 670.228,262.492 671.655,264.496C673.082,266.5 673.451,269.071 672.647,271.395C670.725,276.948 668.443,283.541 666.996,287.723L669.893,292.74C674.238,293.577 681.088,294.898 686.858,296.01C689.274,296.476 691.315,298.08 692.337,300.318C693.358,302.556 693.235,305.15 692.005,307.281C689.067,312.369 685.579,318.411 683.366,322.243L685.261,327.718C689.37,329.363 695.846,331.956 701.301,334.14C703.585,335.054 705.285,337.016 705.866,339.407C706.446,341.798 705.833,344.321 704.223,346.181C700.374,350.622 695.806,355.894 692.908,359.238L693.732,364.973C697.455,367.365 703.324,371.137 708.267,374.314C710.337,375.644 711.635,377.892 711.752,380.35C711.87,382.807 710.791,385.17 708.857,386.691C704.237,390.323 698.754,394.635 695.276,397.371L695,403.158C698.203,406.212 703.252,411.025 707.504,415.08C709.285,416.778 710.134,419.232 709.784,421.667C709.434,424.103 707.928,426.218 705.741,427.345C700.518,430.038 694.318,433.234 690.384,435.262L689.019,440.892C691.585,444.497 695.632,450.179 699.04,454.966C700.467,456.97 700.837,459.54 700.032,461.865C699.228,464.19 697.348,465.982 694.988,466.676C689.349,468.331 682.657,470.296 678.41,471.543L676.003,476.813C677.842,480.839 680.74,487.183 683.18,492.529C684.203,494.767 684.079,497.36 682.849,499.491C681.619,501.621 679.434,503.026 676.985,503.26C671.136,503.818 664.191,504.482 659.786,504.902L656.425,509.622C657.469,513.922 659.113,520.701 660.499,526.412C661.079,528.802 660.466,531.326 658.855,533.185C657.245,535.044 654.833,536.01 652.384,535.776C646.535,535.217 639.591,534.555 635.186,534.134L630.992,538.132C631.203,542.552 631.535,549.52 631.815,555.39C631.931,557.846 630.853,560.209 628.919,561.729C626.985,563.25 624.435,563.742 622.074,563.049C616.437,561.393 609.743,559.428 605.497,558.182L600.623,561.313C599.994,565.694 599,572.598 598.165,578.415C597.814,580.85 596.308,582.966 594.121,584.092C591.935,585.22 589.338,585.22 587.151,584.092C581.928,581.4 575.728,578.204 571.794,576.176L566.416,578.33C564.968,582.511 562.687,589.103 560.765,594.656C559.96,596.981 558.081,598.773 555.72,599.467C553.36,600.159 550.81,599.668 548.876,598.147C544.257,594.514 538.773,590.202 535.295,587.467L529.606,588.564C527.394,592.396 523.905,598.437 520.968,603.526C519.738,605.657 517.553,607.061 515.104,607.295C512.655,607.528 510.244,606.563 508.633,604.704C504.785,600.263 500.217,594.991 497.319,591.646L491.525,591.646C488.627,594.991 484.059,600.263 480.211,604.704C478.6,606.563 476.189,607.528 473.74,607.295C471.291,607.061 469.106,605.657 467.876,603.526C464.938,598.437 461.45,592.396 459.238,588.564L453.549,587.467C450.07,590.202 444.587,594.514 439.968,598.147C438.034,599.668 435.484,600.159 433.124,599.467C430.763,598.773 428.884,596.981 428.079,594.656C426.157,589.103 423.876,582.511 422.428,578.33L417.049,576.176C413.115,578.204 406.916,581.4 401.692,584.092C399.506,585.22 396.909,585.22 394.722,584.092C392.536,582.966 391.029,580.85 390.679,578.415C389.843,572.598 388.85,565.694 388.22,561.313L383.347,558.182C379.1,559.428 372.407,561.393 366.769,563.049C364.409,563.742 361.858,563.25 359.925,561.729C357.991,560.209 356.913,557.846 357.029,555.39C357.309,549.52 357.641,542.552 357.852,538.132L353.658,534.134C349.253,534.555 342.309,535.217 336.46,535.776C334.01,536.01 331.599,535.044 329.989,533.185C328.377,531.326 327.765,528.802 328.345,526.412C329.731,520.701 331.375,513.922 332.418,509.622L329.057,504.902C324.653,504.482 317.708,503.818 311.858,503.26C309.41,503.026 307.225,501.621 305.995,499.491C304.765,497.36 304.641,494.767 305.663,492.529C308.104,487.183 311.002,480.839 312.841,476.813L310.434,471.543C306.187,470.296 299.495,468.331 293.856,466.676C291.496,465.982 289.616,464.19 288.812,461.865C288.007,459.54 288.376,456.97 289.803,454.966C293.212,450.179 297.258,444.497 299.825,440.892L298.459,435.262C294.526,433.234 288.326,430.038 283.103,427.345C280.916,426.218 279.41,424.103 279.06,421.667C278.71,419.232 279.559,416.778 281.339,415.08C285.592,411.025 290.641,406.212 293.844,403.158L293.568,397.371C290.089,394.635 284.606,390.323 279.987,386.691C278.053,385.17 276.974,382.807 277.092,380.35C277.209,377.892 278.507,375.644 280.577,374.314C285.52,371.137 291.388,367.365 295.112,364.973L295.935,359.238C293.038,355.894 288.47,350.622 284.621,346.181C283.011,344.321 282.398,341.798 282.978,339.407C283.559,337.016 285.259,335.054 287.543,334.14C292.998,331.956 299.474,329.363 303.582,327.718L305.478,322.243C303.265,318.411 299.777,312.369 296.839,307.281C295.609,305.15 295.485,302.556 296.507,300.318C297.529,298.08 299.57,296.476 301.986,296.01C307.756,294.898 314.606,293.577 318.951,292.74L321.848,287.723C320.401,283.541 318.119,276.948 316.197,271.395C315.393,269.071 315.762,266.5 317.189,264.496C318.616,262.492 320.925,261.302 323.385,261.302L340.662,261.302L344.456,256.924C343.826,252.543 342.833,245.639 341.997,239.822C341.647,237.387 342.496,234.933 344.277,233.236C346.057,231.537 348.549,230.806 350.965,231.272C356.735,232.384 363.584,233.704 367.93,234.541L372.484,230.96C372.695,226.539 373.027,219.572 373.306,213.702C373.423,211.245 374.721,208.996 376.791,207.666C378.861,206.336 381.445,206.088 383.73,207.003C389.185,209.187 395.661,211.78 399.769,213.424L404.919,210.77C405.962,206.469 407.607,199.69 408.992,193.979C409.573,191.588 411.273,189.626 413.557,188.712C415.841,187.797 418.426,188.045 420.495,189.374C425.439,192.551 431.307,196.323 435.03,198.715L440.589,197.083C442.427,193.057 445.325,186.712 447.766,181.367C448.789,179.129 450.83,177.524 453.246,177.058C455.661,176.592 458.153,177.324 459.933,179.022C464.186,183.077 469.234,187.891 472.437,190.944L478.204,190.393C480.772,186.789 484.818,181.107 488.226,176.321ZM495.225,223.199C587.249,223.199 661.962,297.912 661.962,389.936C661.962,481.961 587.249,556.674 495.225,556.674C403.2,556.674 328.487,481.961 328.487,389.936C328.487,297.912 403.2,223.199 495.225,223.199Z"/>
                                </g>
                            </g>
                        </g>
                    </g>
                    <g transform="matrix(0.817844,0,0,0.817844,-14.0634,16.5883)">
                        <g transform="matrix(1.29999,0.107787,-0.107787,1.29999,0.411125,-221.327)">
                            <path d="M205.907,330.937L158.117,282.075C157.75,281.742 157.399,281.384 157.066,281.001C152.409,275.641 153.075,267.424 158.554,262.663C164.033,257.903 172.262,258.39 176.92,263.751C177.448,264.359 177.908,265.003 178.3,265.675L218.209,321.34C220.801,324.662 220.148,329.509 216.753,332.157C213.358,334.806 208.498,334.259 205.907,330.937Z"/>
                        </g>
                        <g transform="matrix(1.19174,0.530427,-0.530427,1.19174,188.829,-294.572)">
                            <path d="M205.907,330.937L158.117,282.075C157.75,281.742 157.399,281.384 157.066,281.001C152.409,275.641 153.075,267.424 158.554,262.663C164.033,257.903 172.262,258.39 176.92,263.751C177.448,264.359 177.908,265.003 178.3,265.675L218.209,321.34C220.801,324.662 220.148,329.509 216.753,332.157C213.358,334.806 208.498,334.259 205.907,330.937Z"/>
                        </g>
                        <g transform="matrix(1.27541,-0.273735,0.273735,1.27541,-140.414,-110.608)">
                            <path d="M205.907,330.937L158.117,282.075C157.75,281.742 157.399,281.384 157.066,281.001C152.409,275.641 153.075,267.424 158.554,262.663C164.033,257.903 172.262,258.39 176.92,263.751C177.448,264.359 177.908,265.003 178.3,265.675L218.209,321.34C220.801,324.662 220.148,329.509 216.753,332.157C213.358,334.806 208.498,334.259 205.907,330.937Z"/>
                        </g>
                        <g transform="matrix(1.10033,-0.700618,0.700618,1.10033,-255.279,63.4727)">
                            <path d="M205.907,330.937L158.117,282.075C157.75,281.742 157.399,281.384 157.066,281.001C152.409,275.641 153.075,267.424 158.554,262.663C164.033,257.903 172.262,258.39 176.92,263.751C177.448,264.359 177.908,265.003 178.3,265.675L218.209,321.34C220.801,324.662 220.148,329.509 216.753,332.157C213.358,334.806 208.498,334.259 205.907,330.937Z"/>
                        </g>
                        <g transform="matrix(0.819861,-1.0146,1.0146,0.819861,-304.64,253.42)">
                            <path d="M205.907,330.937L158.117,282.075C157.75,281.742 157.399,281.384 157.066,281.001C152.409,275.641 153.075,267.424 158.554,262.663C164.033,257.903 172.262,258.39 176.92,263.751C177.448,264.359 177.908,265.003 178.3,265.675L218.209,321.34C220.801,324.662 220.148,329.509 216.753,332.157C213.358,334.806 208.498,334.259 205.907,330.937Z"/>
                        </g>
                        <g transform="matrix(0.445154,-1.22614,1.22614,0.445154,-288.51,447.813)">
                            <path d="M205.907,330.937L158.117,282.075C157.75,281.742 157.399,281.384 157.066,281.001C152.409,275.641 153.075,267.424 158.554,262.663C164.033,257.903 172.262,258.39 176.92,263.751C177.448,264.359 177.908,265.003 178.3,265.675L218.209,321.34C220.801,324.662 220.148,329.509 216.753,332.157C213.358,334.806 208.498,334.259 205.907,330.937Z"/>
                        </g>
                        <g transform="matrix(-0.308322,-1.26749,1.26749,-0.308322,-104.649,755.802)">
                            <path d="M205.907,330.937L158.117,282.075C157.75,281.742 157.399,281.384 157.066,281.001C152.409,275.641 153.075,267.424 158.554,262.663C164.033,257.903 172.262,258.39 176.92,263.751C177.448,264.359 177.908,265.003 178.3,265.675L218.209,321.34C220.801,324.662 220.148,329.509 216.753,332.157C213.358,334.806 208.498,334.259 205.907,330.937Z"/>
                        </g>
                        <g transform="matrix(-0.645108,-1.13377,1.13377,-0.645108,37.7073,850.619)">
                            <path d="M205.907,330.937L158.117,282.075C157.75,281.742 157.399,281.384 157.066,281.001C152.409,275.641 153.075,267.424 158.554,262.663C164.033,257.903 172.262,258.39 176.92,263.751C177.448,264.359 177.908,265.003 178.3,265.675L218.209,321.34C220.801,324.662 220.148,329.509 216.753,332.157C213.358,334.806 208.498,334.259 205.907,330.937Z"/>
                        </g>
                        <g transform="matrix(-1.02198,-0.810641,0.810641,-1.02198,251.69,909.075)">
                            <path d="M205.907,330.937L158.117,282.075C157.75,281.742 157.399,281.384 157.066,281.001C152.409,275.641 153.075,267.424 158.554,262.663C164.033,257.903 172.262,258.39 176.92,263.751C177.448,264.359 177.908,265.003 178.3,265.675L218.209,321.34C220.801,324.662 220.148,329.509 216.753,332.157C213.358,334.806 208.498,334.259 205.907,330.937Z"/>
                        </g>
                        <g transform="matrix(-1.2281,-0.439737,0.439737,-1.2281,448.92,894.06)">
                            <path d="M205.907,330.937L158.117,282.075C157.75,281.742 157.399,281.384 157.066,281.001C152.409,275.641 153.075,267.424 158.554,262.663C164.033,257.903 172.262,258.39 176.92,263.751C177.448,264.359 177.908,265.003 178.3,265.675L218.209,321.34C220.801,324.662 220.148,329.509 216.753,332.157C213.358,334.806 208.498,334.259 205.907,330.937Z"/>
                        </g>
                        <g transform="matrix(-1.30041,-0.102557,0.102557,-1.30041,604.265,830.946)">
                            <path d="M205.907,330.937L158.117,282.075C157.75,281.742 157.399,281.384 157.066,281.001C152.409,275.641 153.075,267.424 158.554,262.663C164.033,257.903 172.262,258.39 176.92,263.751C177.448,264.359 177.908,265.003 178.3,265.675L218.209,321.34C220.801,324.662 220.148,329.509 216.753,332.157C213.358,334.806 208.498,334.259 205.907,330.937Z"/>
                        </g>
                        <g transform="matrix(-1.25081,0.370232,-0.370232,-1.25081,768.536,694.116)">
                            <path d="M205.907,330.937L158.117,282.075C157.75,281.742 157.399,281.384 157.066,281.001C152.409,275.641 153.075,267.424 158.554,262.663C164.033,257.903 172.262,258.39 176.92,263.751C177.448,264.359 177.908,265.003 178.3,265.675L218.209,321.34C220.801,324.662 220.148,329.509 216.753,332.157C213.358,334.806 208.498,334.259 205.907,330.937Z"/>
                        </g>
                        <g transform="matrix(-1.11286,0.680531,-0.680531,-1.11286,854.35,553.101)">
                            <path d="M205.907,330.937L158.117,282.075C157.75,281.742 157.399,281.384 157.066,281.001C152.409,275.641 153.075,267.424 158.554,262.663C164.033,257.903 172.262,258.39 176.92,263.751C177.448,264.359 177.908,265.003 178.3,265.675L218.209,321.34C220.801,324.662 220.148,329.509 216.753,332.157C213.358,334.806 208.498,334.259 205.907,330.937Z"/>
                        </g>
                        <g transform="matrix(-0.810641,-1.02198,-1.02198,0.810641,907.285,258.238)">
                            <path d="M205.907,330.937L158.117,282.075C157.75,281.742 157.399,281.384 157.066,281.001C152.409,275.641 153.075,267.424 158.554,262.663C164.033,257.903 172.262,258.39 176.92,263.751C177.448,264.359 177.908,265.003 178.3,265.675L218.209,321.34C220.801,324.662 220.148,329.509 216.753,332.157C213.358,334.806 208.498,334.259 205.907,330.937Z"/>
                        </g>
                        <g transform="matrix(-1.10591,-0.691781,-0.691781,1.10591,857.9,60.591)">
                            <path d="M205.907,330.937L158.117,282.075C157.75,281.742 157.399,281.384 157.066,281.001C152.409,275.641 153.075,267.424 158.554,262.663C164.033,257.903 172.262,258.39 176.92,263.751C177.448,264.359 177.908,265.003 178.3,265.675L218.209,321.34C220.801,324.662 220.148,329.509 216.753,332.157C213.358,334.806 208.498,334.259 205.907,330.937Z"/>
                        </g>
                        <g transform="matrix(-1.27365,-0.281807,-0.281807,1.27365,745.219,-109.134)">
                            <path d="M205.907,330.937L158.117,282.075C157.75,281.742 157.399,281.384 157.066,281.001C152.409,275.641 153.075,267.424 158.554,262.663C164.033,257.903 172.262,258.39 176.92,263.751C177.448,264.359 177.908,265.003 178.3,265.675L218.209,321.34C220.801,324.662 220.148,329.509 216.753,332.157C213.358,334.806 208.498,334.259 205.907,330.937Z"/>
                        </g>
                        <g transform="matrix(-1.30028,0.10419,0.10419,1.30028,605.037,-221.095)">
                            <path d="M205.907,330.937L158.117,282.075C157.75,281.742 157.399,281.384 157.066,281.001C152.409,275.641 153.075,267.424 158.554,262.663C164.033,257.903 172.262,258.39 176.92,263.751C177.448,264.359 177.908,265.003 178.3,265.675L218.209,321.34C220.801,324.662 220.148,329.509 216.753,332.157C213.358,334.806 208.498,334.259 205.907,330.937Z"/>
                        </g>
                        <g transform="matrix(-1.21252,0.481021,0.481021,1.21252,433.395,-291.511)">
                            <path d="M205.907,330.937L158.117,282.075C157.75,281.742 157.399,281.384 157.066,281.001C152.409,275.641 153.075,267.424 158.554,262.663C164.033,257.903 172.262,258.39 176.92,263.751C177.448,264.359 177.908,265.003 178.3,265.675L218.209,321.34C220.801,324.662 220.148,329.509 216.753,332.157C213.358,334.806 208.498,334.259 205.907,330.937Z"/>
                        </g>
                        <g transform="matrix(-1.01809,0.815532,0.815532,1.01809,250.329,-302.923)">
                            <path d="M205.907,330.937L158.117,282.075C157.75,281.742 157.399,281.384 157.066,281.001C152.409,275.641 153.075,267.424 158.554,262.663C164.033,257.903 172.262,258.39 176.92,263.751C177.448,264.359 177.908,265.003 178.3,265.675L218.209,321.34C220.801,324.662 220.148,329.509 216.753,332.157C213.358,334.806 208.498,334.259 205.907,330.937Z"/>
                        </g>
                    </g>
                    <g transform="matrix(0.817844,0,0,0.817844,529.281,16.5883)">
                        <g transform="matrix(1.29999,0.107787,-0.107787,1.29999,0.411125,-221.327)">
                            <path d="M205.907,330.937L158.117,282.075C157.75,281.742 157.399,281.384 157.066,281.001C152.409,275.641 153.075,267.424 158.554,262.663C164.033,257.903 172.262,258.39 176.92,263.751C177.448,264.359 177.908,265.003 178.3,265.675L218.209,321.34C220.801,324.662 220.148,329.509 216.753,332.157C213.358,334.806 208.498,334.259 205.907,330.937Z"/>
                        </g>
                        <g transform="matrix(1.19174,0.530427,-0.530427,1.19174,188.829,-294.572)">
                            <path d="M205.907,330.937L158.117,282.075C157.75,281.742 157.399,281.384 157.066,281.001C152.409,275.641 153.075,267.424 158.554,262.663C164.033,257.903 172.262,258.39 176.92,263.751C177.448,264.359 177.908,265.003 178.3,265.675L218.209,321.34C220.801,324.662 220.148,329.509 216.753,332.157C213.358,334.806 208.498,334.259 205.907,330.937Z"/>
                        </g>
                        <g transform="matrix(1.27541,-0.273735,0.273735,1.27541,-140.414,-110.608)">
                            <path d="M205.907,330.937L158.117,282.075C157.75,281.742 157.399,281.384 157.066,281.001C152.409,275.641 153.075,267.424 158.554,262.663C164.033,257.903 172.262,258.39 176.92,263.751C177.448,264.359 177.908,265.003 178.3,265.675L218.209,321.34C220.801,324.662 220.148,329.509 216.753,332.157C213.358,334.806 208.498,334.259 205.907,330.937Z"/>
                        </g>
                        <g transform="matrix(1.10033,-0.700618,0.700618,1.10033,-255.279,63.4727)">
                            <path d="M205.907,330.937L158.117,282.075C157.75,281.742 157.399,281.384 157.066,281.001C152.409,275.641 153.075,267.424 158.554,262.663C164.033,257.903 172.262,258.39 176.92,263.751C177.448,264.359 177.908,265.003 178.3,265.675L218.209,321.34C220.801,324.662 220.148,329.509 216.753,332.157C213.358,334.806 208.498,334.259 205.907,330.937Z"/>
                        </g>
                        <g transform="matrix(0.819861,-1.0146,1.0146,0.819861,-304.64,253.42)">
                            <path d="M205.907,330.937L158.117,282.075C157.75,281.742 157.399,281.384 157.066,281.001C152.409,275.641 153.075,267.424 158.554,262.663C164.033,257.903 172.262,258.39 176.92,263.751C177.448,264.359 177.908,265.003 178.3,265.675L218.209,321.34C220.801,324.662 220.148,329.509 216.753,332.157C213.358,334.806 208.498,334.259 205.907,330.937Z"/>
                        </g>
                        <g transform="matrix(0.445154,-1.22614,1.22614,0.445154,-288.51,447.813)">
                            <path d="M205.907,330.937L158.117,282.075C157.75,281.742 157.399,281.384 157.066,281.001C152.409,275.641 153.075,267.424 158.554,262.663C164.033,257.903 172.262,258.39 176.92,263.751C177.448,264.359 177.908,265.003 178.3,265.675L218.209,321.34C220.801,324.662 220.148,329.509 216.753,332.157C213.358,334.806 208.498,334.259 205.907,330.937Z"/>
                        </g>
                        <g transform="matrix(-0.308322,-1.26749,1.26749,-0.308322,-104.649,755.802)">
                            <path d="M205.907,330.937L158.117,282.075C157.75,281.742 157.399,281.384 157.066,281.001C152.409,275.641 153.075,267.424 158.554,262.663C164.033,257.903 172.262,258.39 176.92,263.751C177.448,264.359 177.908,265.003 178.3,265.675L218.209,321.34C220.801,324.662 220.148,329.509 216.753,332.157C213.358,334.806 208.498,334.259 205.907,330.937Z"/>
                        </g>
                        <g transform="matrix(-0.645108,-1.13377,1.13377,-0.645108,37.7073,850.619)">
                            <path d="M205.907,330.937L158.117,282.075C157.75,281.742 157.399,281.384 157.066,281.001C152.409,275.641 153.075,267.424 158.554,262.663C164.033,257.903 172.262,258.39 176.92,263.751C177.448,264.359 177.908,265.003 178.3,265.675L218.209,321.34C220.801,324.662 220.148,329.509 216.753,332.157C213.358,334.806 208.498,334.259 205.907,330.937Z"/>
                        </g>
                        <g transform="matrix(-1.02198,-0.810641,0.810641,-1.02198,251.69,909.075)">
                            <path d="M205.907,330.937L158.117,282.075C157.75,281.742 157.399,281.384 157.066,281.001C152.409,275.641 153.075,267.424 158.554,262.663C164.033,257.903 172.262,258.39 176.92,263.751C177.448,264.359 177.908,265.003 178.3,265.675L218.209,321.34C220.801,324.662 220.148,329.509 216.753,332.157C213.358,334.806 208.498,334.259 205.907,330.937Z"/>
                        </g>
                        <g transform="matrix(-1.2281,-0.439737,0.439737,-1.2281,448.92,894.06)">
                            <path d="M205.907,330.937L158.117,282.075C157.75,281.742 157.399,281.384 157.066,281.001C152.409,275.641 153.075,267.424 158.554,262.663C164.033,257.903 172.262,258.39 176.92,263.751C177.448,264.359 177.908,265.003 178.3,265.675L218.209,321.34C220.801,324.662 220.148,329.509 216.753,332.157C213.358,334.806 208.498,334.259 205.907,330.937Z"/>
                        </g>
                        <g transform="matrix(-1.30041,-0.102557,0.102557,-1.30041,604.265,830.946)">
                            <path d="M205.907,330.937L158.117,282.075C157.75,281.742 157.399,281.384 157.066,281.001C152.409,275.641 153.075,267.424 158.554,262.663C164.033,257.903 172.262,258.39 176.92,263.751C177.448,264.359 177.908,265.003 178.3,265.675L218.209,321.34C220.801,324.662 220.148,329.509 216.753,332.157C213.358,334.806 208.498,334.259 205.907,330.937Z"/>
                        </g>
                        <g transform="matrix(-1.25081,0.370232,-0.370232,-1.25081,768.536,694.116)">
                            <path d="M205.907,330.937L158.117,282.075C157.75,281.742 157.399,281.384 157.066,281.001C152.409,275.641 153.075,267.424 158.554,262.663C164.033,257.903 172.262,258.39 176.92,263.751C177.448,264.359 177.908,265.003 178.3,265.675L218.209,321.34C220.801,324.662 220.148,329.509 216.753,332.157C213.358,334.806 208.498,334.259 205.907,330.937Z"/>
                        </g>
                        <g transform="matrix(-1.11286,0.680531,-0.680531,-1.11286,854.35,553.101)">
                            <path d="M205.907,330.937L158.117,282.075C157.75,281.742 157.399,281.384 157.066,281.001C152.409,275.641 153.075,267.424 158.554,262.663C164.033,257.903 172.262,258.39 176.92,263.751C177.448,264.359 177.908,265.003 178.3,265.675L218.209,321.34C220.801,324.662 220.148,329.509 216.753,332.157C213.358,334.806 208.498,334.259 205.907,330.937Z"/>
                        </g>
                        <g transform="matrix(-0.810641,-1.02198,-1.02198,0.810641,907.285,258.238)">
                            <path d="M205.907,330.937L158.117,282.075C157.75,281.742 157.399,281.384 157.066,281.001C152.409,275.641 153.075,267.424 158.554,262.663C164.033,257.903 172.262,258.39 176.92,263.751C177.448,264.359 177.908,265.003 178.3,265.675L218.209,321.34C220.801,324.662 220.148,329.509 216.753,332.157C213.358,334.806 208.498,334.259 205.907,330.937Z"/>
                        </g>
                        <g transform="matrix(-1.10591,-0.691781,-0.691781,1.10591,857.9,60.591)">
                            <path d="M205.907,330.937L158.117,282.075C157.75,281.742 157.399,281.384 157.066,281.001C152.409,275.641 153.075,267.424 158.554,262.663C164.033,257.903 172.262,258.39 176.92,263.751C177.448,264.359 177.908,265.003 178.3,265.675L218.209,321.34C220.801,324.662 220.148,329.509 216.753,332.157C213.358,334.806 208.498,334.259 205.907,330.937Z"/>
                        </g>
                        <g transform="matrix(-1.27365,-0.281807,-0.281807,1.27365,745.219,-109.134)">
                            <path d="M205.907,330.937L158.117,282.075C157.75,281.742 157.399,281.384 157.066,281.001C152.409,275.641 153.075,267.424 158.554,262.663C164.033,257.903 172.262,258.39 176.92,263.751C177.448,264.359 177.908,265.003 178.3,265.675L218.209,321.34C220.801,324.662 220.148,329.509 216.753,332.157C213.358,334.806 208.498,334.259 205.907,330.937Z"/>
                        </g>
                        <g transform="matrix(-1.30028,0.10419,0.10419,1.30028,605.037,-221.095)">
                            <path d="M205.907,330.937L158.117,282.075C157.75,281.742 157.399,281.384 157.066,281.001C152.409,275.641 153.075,267.424 158.554,262.663C164.033,257.903 172.262,258.39 176.92,263.751C177.448,264.359 177.908,265.003 178.3,265.675L218.209,321.34C220.801,324.662 220.148,329.509 216.753,332.157C213.358,334.806 208.498,334.259 205.907,330.937Z"/>
                        </g>
                        <g transform="matrix(-1.21252,0.481021,0.481021,1.21252,433.395,-291.511)">
                            <path d="M205.907,330.937L158.117,282.075C157.75,281.742 157.399,281.384 157.066,281.001C152.409,275.641 153.075,267.424 158.554,262.663C164.033,257.903 172.262,258.39 176.92,263.751C177.448,264.359 177.908,265.003 178.3,265.675L218.209,321.34C220.801,324.662 220.148,329.509 216.753,332.157C213.358,334.806 208.498,334.259 205.907,330.937Z"/>
                        </g>
                        <g transform="matrix(-1.01809,0.815532,0.815532,1.01809,250.329,-302.923)">
                            <path d="M205.907,330.937L158.117,282.075C157.75,281.742 157.399,281.384 157.066,281.001C152.409,275.641 153.075,267.424 158.554,262.663C164.033,257.903 172.262,258.39 176.92,263.751C177.448,264.359 177.908,265.003 178.3,265.675L218.209,321.34C220.801,324.662 220.148,329.509 216.753,332.157C213.358,334.806 208.498,334.259 205.907,330.937Z"/>
                        </g>
                    </g>
                    <g transform="matrix(0.817844,0,0,0.817844,-108.465,88.1679)">
                        <g transform="matrix(0.766178,5.55112e-17,-5.55112e-17,0.766178,83.2189,160.023)">
                            <path d="M322,167.341C322,161.416 319.646,155.733 315.456,151.544C311.267,147.354 305.584,145 299.659,145L266.198,145C260.311,145 254.665,147.339 250.502,151.502C246.339,155.665 244,161.311 244,167.198L244,200.802C244,206.689 246.339,212.335 250.502,216.498C254.665,220.661 260.311,223 266.198,223L299.802,223C305.689,223 311.335,220.661 315.498,216.498C319.661,212.335 322,206.689 322,200.802L322,167.341Z"/>
                        </g>
                        <g transform="matrix(1.12963,0,0,1.12963,-42.7953,-28.287)">
                            <circle cx="303.5" cy="291.5" r="13.5" style="fill:white;stroke:white;stroke-width:0.89px;"/>
                        </g>
                    </g>
                    <g transform="matrix(0.817844,6.93889e-18,-6.93889e-18,0.817844,433.902,88.1679)">
                        <g transform="matrix(0.766178,5.55112e-17,-5.55112e-17,0.766178,83.2189,160.023)">
                            <path d="M322,167.341C322,161.416 319.646,155.733 315.456,151.544C311.267,147.354 305.584,145 299.659,145L266.198,145C260.311,145 254.665,147.339 250.502,151.502C246.339,155.665 244,161.311 244,167.198L244,200.802C244,206.689 246.339,212.335 250.502,216.498C254.665,220.661 260.311,223 266.198,223L299.802,223C305.689,223 311.335,220.661 315.498,216.498C319.661,212.335 322,206.689 322,200.802L322,167.341Z"/>
                        </g>
                        <g transform="matrix(1.12963,0,0,1.12963,-42.7953,-28.287)">
                            <circle cx="303.5" cy="291.5" r="13.5" style="fill:white;stroke:white;stroke-width:0.89px;"/>
                        </g>
                    </g>
                    <g transform="matrix(0.650515,0.650515,-0.636494,0.636494,230.276,-307.205)">
                        <g transform="matrix(0.766178,5.55112e-17,-5.55112e-17,0.766178,83.2189,160.023)">
                            <path d="M322,145L282.463,145C272.262,145 262.479,149.142 255.266,156.514C248.052,163.886 244,173.885 244,184.31L244,223L302.266,223C307.5,223 312.519,220.875 316.22,217.093C319.921,213.31 322,208.18 322,202.831L322,145Z"/>
                        </g>
                        <g transform="matrix(1.12963,0,0,1.12963,-42.7953,-28.287)">
                            <circle cx="303.5" cy="291.5" r="13.5" style="fill:white;stroke:white;stroke-width:0.8px;"/>
                        </g>
                    </g>
                    <g transform="matrix(0.650515,0.650515,-0.636494,0.636494,773.621,-307.205)">
                        <g transform="matrix(0.766178,5.55112e-17,-5.55112e-17,0.766178,83.2189,160.023)">
                            <path d="M322,145L282.463,145C272.262,145 262.479,149.142 255.266,156.514C248.052,163.886 244,173.885 244,184.31L244,223L302.266,223C307.5,223 312.519,220.875 316.22,217.093C319.921,213.31 322,208.18 322,202.831L322,145Z"/>
                        </g>
                        <g transform="matrix(1.12963,0,0,1.12963,-42.7953,-28.287)">
                            <circle cx="303.5" cy="291.5" r="13.5" style="fill:white;stroke:white;stroke-width:0.8px;"/>
                        </g>
                    </g>
                    <g transform="matrix(0.435387,0.810419,-0.792952,0.426002,167.543,-162.614)">
                        <g transform="matrix(0.766178,5.55112e-17,-5.55112e-17,0.766178,83.2189,160.023)">
                            <path d="M322,165.299C322,154.088 313.108,145 302.139,145L244,145L244,183.523C244,193.993 248.07,204.034 255.313,211.437C262.557,218.841 272.382,223 282.626,223L322,223L322,165.299Z"/>
                        </g>
                        <g transform="matrix(1.12963,0,0,1.12963,-42.7953,-28.287)">
                            <circle cx="303.5" cy="291.5" r="13.5" style="fill:white;stroke:white;stroke-width:0.8px;"/>
                        </g>
                    </g>
                    <g transform="matrix(0.435387,0.810419,-0.792952,0.426002,710.888,-162.614)">
                        <g transform="matrix(0.766178,5.55112e-17,-5.55112e-17,0.766178,83.2189,160.023)">
                            <path d="M322,165.299C322,154.088 313.108,145 302.139,145L244,145L244,183.523C244,193.993 248.07,204.034 255.313,211.437C262.557,218.841 272.382,223 282.626,223L322,223L322,165.299Z"/>
                        </g>
                        <g transform="matrix(1.12963,0,0,1.12963,-42.7953,-28.287)">
                            <circle cx="303.5" cy="291.5" r="13.5" style="fill:white;stroke:white;stroke-width:0.8px;"/>
                        </g>
                    </g>
                    <g transform="matrix(0.911635,-0.123544,0.120881,0.891982,-187.315,181.55)">
                        <g transform="matrix(0.766178,5.55112e-17,-5.55112e-17,0.766178,83.2189,160.023)">
                            <path d="M322,165.299C322,154.088 313.108,145 302.139,145L244,145L244,177.737C244,202.735 263.828,223 288.287,223L322,223L322,165.299Z"/>
                        </g>
                        <g transform="matrix(1.12963,0,0,1.12963,-42.7953,-28.287)">
                            <circle cx="303.5" cy="291.5" r="13.5" style="fill:white;stroke:white;stroke-width:0.8px;"/>
                        </g>
                    </g>
                    <g transform="matrix(0.911635,-0.123544,0.120881,0.891982,356.029,181.55)">
                        <g transform="matrix(0.766178,5.55112e-17,-5.55112e-17,0.766178,83.2189,160.023)">
                            <path d="M322,165.299C322,154.088 313.108,145 302.139,145L244,145L244,177.737C244,202.735 263.828,223 288.287,223L322,223L322,165.299Z"/>
                        </g>
                        <g transform="matrix(1.12963,0,0,1.12963,-42.7953,-28.287)">
                            <circle cx="303.5" cy="291.5" r="13.5" style="fill:white;stroke:white;stroke-width:0.8px;"/>
                        </g>
                    </g>
                    <g transform="matrix(0.157683,-0.906351,0.886821,0.154285,26.934,639.385)">
                        <g transform="matrix(0.766178,5.55112e-17,-5.55112e-17,0.766178,83.2189,160.023)">
                            <path d="M322,165.299C322,154.088 313.108,145 302.139,145L263.734,145C258.5,145 253.481,147.125 249.78,150.907C246.079,154.69 244,159.82 244,165.169L244,202.831C244,208.18 246.079,213.31 249.78,217.093C253.481,220.875 258.5,223 263.734,223L302.266,223C307.5,223 312.519,220.875 316.22,217.093C319.921,213.31 322,208.18 322,202.831L322,165.299Z"/>
                        </g>
                        <g transform="matrix(1.12963,0,0,1.12963,-42.7953,-28.287)">
                            <circle cx="303.5" cy="291.5" r="13.5" style="fill:white;stroke:white;stroke-width:0.8px;"/>
                        </g>
                    </g>
                    <g transform="matrix(0.157683,-0.906351,0.886821,0.154285,570.279,639.385)">
                        <g transform="matrix(0.766178,5.55112e-17,-5.55112e-17,0.766178,83.2189,160.023)">
                            <path d="M322,165.299C322,154.088 313.108,145 302.139,145L263.734,145C258.5,145 253.481,147.125 249.78,150.907C246.079,154.69 244,159.82 244,165.169L244,202.831C244,208.18 246.079,213.31 249.78,217.093C253.481,220.875 258.5,223 263.734,223L302.266,223C307.5,223 312.519,220.875 316.22,217.093C319.921,213.31 322,208.18 322,202.831L322,165.299Z"/>
                        </g>
                        <g transform="matrix(1.12963,0,0,1.12963,-42.7953,-28.287)">
                            <circle cx="303.5" cy="291.5" r="13.5" style="fill:white;stroke:white;stroke-width:0.8px;"/>
                        </g>
                    </g>
                    <g transform="matrix(-0.816346,-0.424169,0.415027,-0.79875,526.545,576.795)">
                        <g transform="matrix(0.766178,5.55112e-17,-5.55112e-17,0.766178,83.2189,160.023)">
                            <path d="M322,165.299C322,154.088 313.108,145 302.139,145L244,145L244,186.531C244,196.203 247.759,205.479 254.451,212.319C261.143,219.158 270.219,223 279.683,223L322,223L322,165.299Z"/>
                        </g>
                        <g transform="matrix(1.12963,0,0,1.12963,-42.7953,-28.287)">
                            <circle cx="303.5" cy="291.5" r="13.5" style="fill:white;stroke:white;stroke-width:0.8px;"/>
                        </g>
                    </g>
                    <g transform="matrix(-0.816346,-0.424169,0.415027,-0.79875,1069.89,576.795)">
                        <g transform="matrix(0.766178,5.55112e-17,-5.55112e-17,0.766178,83.2189,160.023)">
                            <path d="M322,165.299C322,154.088 313.108,145 302.139,145L244,145L244,186.531C244,196.203 247.759,205.479 254.451,212.319C261.143,219.158 270.219,223 279.683,223L322,223L322,165.299Z"/>
                        </g>
                        <g transform="matrix(1.12963,0,0,1.12963,-42.7953,-28.287)">
                            <circle cx="303.5" cy="291.5" r="13.5" style="fill:white;stroke:white;stroke-width:0.8px;"/>
                        </g>
                    </g>
                    <g transform="matrix(1.06684,0,0,1.06684,-411.635,-390.609)">
                        <path d="M771.097,605.43C771.229,608.149 771.296,610.885 771.296,613.637C771.296,705.661 696.584,780.374 604.559,780.374C587.387,780.374 570.818,777.772 555.224,772.942L771.097,605.43Z" style="fill:white;"/>
                    </g>
                    <g transform="matrix(1.06684,0,0,1.06684,131.709,-390.609)">
                        <path d="M771.097,605.43C771.229,608.149 771.296,610.885 771.296,613.637C771.296,705.661 696.584,780.374 604.559,780.374C587.387,780.374 570.818,777.772 555.224,772.942L771.097,605.43Z" style="fill:white;"/>
                    </g>
                    <g transform="matrix(1.32558,0,0,1.09263,-246.177,-58.3037)">
                        <rect x="306.153" y="348.354" width="373.574" height="22.29"/>
                    </g>
                </g>
            </g>
        </g>
        <g id="Capa11" serif:id="Capa1">
        </g>
    </g>
</svg>
